<?xml version="1.0" encoding="utf-8" ?><svg xmlns="http://www.w3.org/2000/svg" xmlns:xlink="http://www.w3.org/1999/xlink" width="1024" height="1024" viewBox="0 0 1024 1024"><path fill="#000000" d="M184.334 435.191C190.876 433.919 201.778 435.498 208.179 437.359C225.916 442.514 238.724 453.958 247.427 470.124C257.578 488.94 259.799 511.03 253.596 531.491C240.448 574.875 188.021 602.396 149.968 568.254C146.427 565.077 143.574 560.133 141.367 555.946C142.18 574.224 142.189 591.245 142.174 609.53L142.05 642.044L101.973 642.038L102.002 438.38C114.771 438.717 128.536 438.481 141.379 438.49C140.132 446.158 140.093 457.95 140.011 465.819C150.554 446.807 162.386 437.795 184.334 435.191ZM182.251 546.43C202.957 544.455 218.179 526.126 216.318 505.409C214.457 484.693 196.212 469.37 175.486 471.116C154.596 472.876 139.127 491.295 141.002 512.175C142.878 533.054 161.382 548.421 182.251 546.43Z"/><path fill="#000000" d="M678.852 434.792C720.12 429.701 757.672 459.105 762.626 500.39C767.58 541.675 738.051 579.129 696.75 583.947C655.643 588.741 618.402 559.38 613.471 518.289C608.54 477.197 637.777 439.859 678.852 434.792ZM691.988 547.426C702.175 545.606 709.71 542.833 715.91 533.956C733.198 509.209 718.668 467.079 684.509 471.682C678.545 472.561 673.904 473.537 668.67 476.759C647.502 489.788 647.354 526.938 666.943 541.378C674.281 546.787 683.173 547.617 691.988 547.426Z"/><path fill="#000000" d="M785.417 438.537C799.122 438.673 812.828 438.719 826.533 438.676L826.506 494.459C826.497 504.344 825.865 514.932 827.069 524.621C829.002 538.231 835.253 545.043 849.261 545.642C885.642 547.199 881.438 508.475 881.419 483.489L881.364 438.785C895.094 438.951 908.826 438.889 922.554 438.597L922.582 508.25L922.617 580.77C909.24 580.6 895.862 580.558 882.484 580.645L882.52 548.568C879.463 555.608 876.944 560.506 871.535 566.112C853.349 584.959 817.735 591.623 797.76 571.949C791.894 566.103 787.885 558.653 786.239 550.536C784.35 541.396 785.444 520.112 785.48 509.898L785.417 438.537Z"/><path fill="#000000" d="M536.159 434.686C555.2 432.163 578.516 440.375 595.079 449.265C589.137 459.251 584.621 467.753 579.384 478.168C562.897 469.197 535.695 459.279 519.109 473.415C514.537 477.31 516.945 484.747 521.402 487.064C548.188 500.989 598.826 492.36 600.432 535.295C600.798 546.409 596.677 557.202 588.998 565.243C575.616 579.506 555.442 583.057 536.811 583.734C514.827 583.923 497.854 578.258 478.891 567.668C483.216 558.364 487.803 549.184 492.646 540.139C509.083 547.956 524.115 554.21 542.875 552.683C547.518 552.493 556.968 550.122 559.758 545.884C569.787 530.654 545.783 527.335 538.398 525.744C515.804 520.874 481.963 517.343 478.438 489.115C477.056 478.043 480.049 465.99 486.981 457.189C499.101 442.012 517.703 436.948 536.159 434.686Z"/><path fill="#000000" d="M407.987 435.207C432.866 433.417 456.518 442.286 469.374 464.585C462.177 471.384 450.162 477.9 442.032 484.514C434.952 476.873 427.797 471.72 417.061 470.891C408.13 470.19 398.201 472.343 391.408 478.463C376.207 492.16 375.586 522.147 389.387 537.006C395.482 543.568 404.584 547.297 413.495 547.452C426.952 547.685 436.99 542.149 446.462 533.053C450.955 536.82 455.412 540.631 459.832 544.483L470.942 553.725C457.483 569.4 443.998 580.791 422.734 583.075C401.841 585.291 383.024 580.391 366.551 567.254C333.531 540.924 331.338 491.856 357.595 460.007C370.482 444.376 388.076 437.057 407.987 435.207Z"/><path fill="#000000" d="M278.242 441.004C291.462 440.822 305.218 441.185 318.64 441.06C319.765 475.137 318.134 509.669 318.695 543.795C318.896 556.025 318.952 568.552 318.722 580.777C305.693 580.435 290.995 580.517 277.968 580.811C278.502 534.274 277.472 487.661 278.242 441.004Z"/><path fill="#000000" d="M295.384 381.855C308.538 380.315 320.465 389.69 322.074 402.835C323.684 415.98 314.371 427.956 301.234 429.634C288.001 431.324 275.916 421.928 274.295 408.685C272.674 395.442 282.133 383.408 295.384 381.855Z"/></svg>
